<svg width="68" height="67" viewBox="0 0 68 67" fill="none" xmlns="http://www.w3.org/2000/svg">
<path d="M6.24037 1.26159C3.35708 1.3248 1.3912 1.38763 0.342735 1.45083C0.226265 4.48302 0.139061 6.85192 0.0807877 8.55753C0.0225143 10.2631 0.00791931 11.5739 0.0370178 12.4899C0.0661163 13.4059 0.138893 14.085 0.255363 14.5273C0.371834 14.9695 0.54657 15.5065 0.779594 16.1382C1.12908 16.2645 1.3621 16.3277 1.47857 16.3277L41.4078 16.3277C41.8155 16.075 42.1796 15.8539 42.5 15.6644C42.8204 15.4749 43.1262 15.2854 43.4174 15.0959L44.4659 15.7592L45.5144 16.3277C46.4464 16.833 47.2327 16.833 47.8734 16.3277C48.5141 15.8224 49.1548 15.4118 49.7955 15.096C50.145 15.3487 50.4799 15.5856 50.8003 15.8067C51.1207 16.0277 51.4265 16.2014 51.7177 16.3277H54.1641C54.5136 16.075 54.8485 15.8381 55.1689 15.617C55.4893 15.396 55.8242 15.1591 56.1737 14.9064C56.931 14.7801 57.5426 14.9538 58.0085 15.4275C58.4745 15.9013 59.0278 16.2014 59.6685 16.3277H66.7457C66.9204 16.075 67.1098 15.8539 67.3136 15.6644C67.5175 15.4749 67.6485 15.2538 67.7068 15.0011V5.1465C67.1826 5.08329 66.8477 4.90961 66.702 4.62534C66.5564 4.34107 66.4399 3.9936 66.3525 3.58302C66.2651 3.17244 66.1924 2.76186 66.1341 2.35128C66.0758 1.94071 65.872 1.60906 65.5225 1.35635C65.406 1.54586 65.2604 1.7512 65.0856 1.97226C64.9109 2.19333 64.7944 2.43022 64.7361 2.68293C64.7361 2.99875 64.6924 3.28302 64.6051 3.53574C64.5177 3.78845 64.3284 3.94641 64.0371 4.00961C63.9207 4.07282 63.7605 3.99389 63.5567 3.77282C63.3528 3.55175 63.2218 3.37806 63.1635 3.25175C63.047 2.80952 62.916 2.41467 62.7703 2.0672C62.6247 1.71973 62.3772 1.41965 62.0277 1.16693C59.9888 1.10373 57.2078 1.05635 53.6836 1.0248C50.1594 0.993241 46.2858 0.977417 42.0631 0.977417C37.8404 0.977417 33.4859 0.993242 29.0009 1.0248C24.5158 1.05635 20.322 1.08791 16.4193 1.11946C12.5166 1.15101 9.12366 1.19839 6.24037 1.26159Z" fill="url(#paint0_linear_809_70)"/>
<path d="M6.21791 51.2842C3.33462 51.3474 1.36874 51.4102 0.320274 51.4734C0.203804 54.5056 0.1166 56.8745 0.0583267 58.5801C5.34058e-05 60.2857 -0.0145416 61.5965 0.0145569 62.5125C0.0436554 63.4285 0.116432 64.1076 0.232903 64.5498C0.349373 64.9921 0.524109 65.529 0.757133 66.1608C1.10662 66.2871 1.33964 66.3503 1.45611 66.3503L41.3853 66.3503C41.7931 66.0976 42.1572 65.8765 42.4776 65.687C42.7979 65.4975 43.1038 65.308 43.395 65.1185L44.4434 65.7818L45.4919 66.3503C46.4239 66.8556 47.2103 66.8556 47.851 66.3503C48.4917 65.845 49.1324 65.4344 49.7731 65.1186C50.1226 65.3713 50.4575 65.6082 50.7778 65.8292C51.0982 66.0503 51.404 66.224 51.6953 66.3503H54.1417C54.4912 66.0976 54.8261 65.8607 55.1465 65.6396C55.4669 65.4186 55.8018 65.1817 56.1513 64.929C56.9085 64.8027 57.5201 64.9763 57.9861 65.4501C58.452 65.9239 59.0054 66.224 59.6461 66.3503H66.7232C66.898 66.0976 67.0873 65.8765 67.2911 65.687C67.495 65.4975 67.626 65.2764 67.6843 65.0237V55.1691C67.1601 55.1059 66.8252 54.9322 66.6795 54.6479C66.5339 54.3637 66.4174 54.0162 66.3301 53.6056C66.2427 53.195 66.1699 52.7844 66.1116 52.3739C66.0533 51.9633 65.8495 51.6316 65.5 51.3789C65.3835 51.5684 65.2379 51.7738 65.0632 51.9948C64.8884 52.2159 64.7719 52.4528 64.7137 52.7055C64.7137 53.0213 64.67 53.3056 64.5826 53.5583C64.4952 53.811 64.3059 53.969 64.0147 54.0322C63.8982 54.0954 63.7381 54.0165 63.5342 53.7954C63.3304 53.5743 63.1993 53.4006 63.141 53.2743C63.0246 52.8321 62.8935 52.4373 62.7479 52.0898C62.6022 51.7423 62.3547 51.4422 62.0052 51.1895C59.9664 51.1263 57.1853 51.0789 53.6611 51.0474C50.137 51.0158 46.2633 51 42.0406 51C37.8179 51 33.4635 51.0158 28.9784 51.0474C24.4934 51.0789 20.2995 51.1105 16.3968 51.142C12.4941 51.1736 9.1012 51.221 6.21791 51.2842Z" fill="url(#paint1_linear_809_70)"/>
<path d="M61.4664 41.4452C64.3497 41.382 66.3156 41.3192 67.3641 41.256C67.4805 38.2238 67.5677 35.8549 67.626 34.1493C67.6843 32.4437 67.6989 31.1329 67.6698 30.2169C67.6407 29.3009 67.5679 28.6218 67.4514 28.1795C67.335 27.7373 67.1602 27.2003 66.9272 26.5686C66.5777 26.4423 66.3447 26.3791 66.2282 26.3791L26.299 26.3791C25.8912 26.6318 25.5272 26.8529 25.2068 27.0424C24.8864 27.2319 24.5806 27.4214 24.2894 27.6109L23.2409 26.9476L22.1924 26.3791C21.2604 25.8737 20.4741 25.8737 19.8334 26.3791C19.1927 26.8844 18.552 27.295 17.9113 27.6108C17.5618 27.3581 17.2269 27.1212 16.9065 26.9001C16.5861 26.6791 16.2803 26.5054 15.9891 26.3791H13.5426C13.1931 26.6318 12.8582 26.8687 12.5379 27.0897C12.2175 27.3108 11.8826 27.5477 11.5331 27.8004C10.7758 27.9267 10.1642 27.753 9.69825 27.2793C9.23229 26.8055 8.67897 26.5054 8.03826 26.3791H0.961096C0.786351 26.6318 0.597016 26.8529 0.393177 27.0424C0.189337 27.2319 0.0582774 27.4529 0 27.7057L0 37.5603C0.524235 37.6235 0.859133 37.7972 1.00478 38.0814C1.15043 38.3657 1.2669 38.7132 1.35427 39.1238C1.44164 39.5343 1.51443 39.9449 1.5727 40.3555C1.63098 40.7661 1.83482 41.0977 2.18431 41.3504C2.30078 41.1609 2.44643 40.9556 2.62117 40.7345C2.79592 40.5135 2.91238 40.2766 2.97066 40.0239C2.97066 39.708 3.01435 39.4238 3.10172 39.1711C3.18909 38.9183 3.37843 38.7604 3.66964 38.6972C3.78611 38.634 3.94626 38.7129 4.1501 38.934C4.35394 39.155 4.485 39.3287 4.54328 39.455C4.65975 39.8973 4.79081 40.2921 4.93646 40.6396C5.08211 40.9871 5.32963 41.2871 5.67912 41.5399C7.71796 41.6031 10.499 41.6504 14.0232 41.682C17.5474 41.7135 21.421 41.7294 25.6437 41.7294C29.8664 41.7294 34.2208 41.7135 38.7059 41.682C43.1909 41.6504 47.3848 41.6189 51.2875 41.5873C55.1902 41.5558 58.5831 41.5084 61.4664 41.4452Z" fill="url(#paint2_linear_809_70)"/>
<defs>
<linearGradient id="paint0_linear_809_70" x1="67.7068" y1="-54.6993" x2="67.7068" y2="146.427" gradientUnits="userSpaceOnUse">
<stop stop-color="white"/>
<stop offset="0.0001" stop-color="#E6E7E8"/>
<stop offset="0.504" stop-color="white"/>
<stop offset="1" stop-color="white"/>
</linearGradient>
<linearGradient id="paint1_linear_809_70" x1="67.6843" y1="-4.67676" x2="67.6843" y2="196.449" gradientUnits="userSpaceOnUse">
<stop stop-color="white"/>
<stop offset="0.0001" stop-color="#E6E7E8"/>
<stop offset="0.504" stop-color="white"/>
<stop offset="1" stop-color="white"/>
</linearGradient>
<linearGradient id="paint2_linear_809_70" x1="0" y1="97.4061" x2="0" y2="-103.72" gradientUnits="userSpaceOnUse">
<stop stop-color="white"/>
<stop offset="0.0001" stop-color="#E6E7E8"/>
<stop offset="0.504" stop-color="white"/>
<stop offset="1" stop-color="white"/>
</linearGradient>
</defs>
</svg>
