<svg width="68" height="68" viewBox="0 0 68 68" fill="none" xmlns="http://www.w3.org/2000/svg">
<path d="M17.0341 6.31415C14.6184 3.9878 12.9573 2.41561 12.0504 1.59811C9.81057 3.64642 8.0638 5.24977 6.80983 6.40789C5.55586 7.56602 4.61701 8.48087 3.99322 9.15251C3.36943 9.82415 2.94908 10.3642 2.73215 10.7727C2.51523 11.1812 2.27922 11.7046 2.02414 12.3429C2.22222 12.7196 2.36915 12.9559 2.46493 13.0517L35.3003 45.887C35.8143 46.0437 36.27 46.1867 36.6675 46.3162C37.0649 46.4457 37.4504 46.5631 37.8239 46.6686L38.2171 47.9998L38.6773 49.264C39.0864 50.3878 39.733 51.0344 40.6172 51.204C41.5014 51.3735 42.3186 51.6101 43.0688 51.9136C43.1775 52.3797 43.2854 52.8226 43.3925 53.2424C43.4997 53.6622 43.6284 54.0365 43.7785 54.3653L45.7903 56.3771C46.2564 56.4858 46.6993 56.5937 47.1191 56.7008C47.5389 56.808 47.9818 56.9159 48.4479 57.0246C49.1599 57.558 49.5401 58.1838 49.5882 58.902C49.6364 59.6201 49.8792 60.2874 50.3168 60.9035L56.1366 66.7234C56.459 66.6884 56.771 66.6878 57.0726 66.7214C57.3743 66.755 57.6384 66.7065 57.865 66.5757L64.8333 59.6074C64.4469 59.1316 64.2943 58.7334 64.3755 58.4126C64.4567 58.0918 64.6067 57.7504 64.8251 57.3882C65.0436 57.026 65.2741 56.6758 65.5165 56.3376C65.7589 55.9994 65.8258 55.5972 65.7171 55.1311C65.4873 55.1694 65.2223 55.1948 64.9223 55.2074C64.6223 55.22 64.359 55.2917 64.1324 55.4225C63.9091 55.6458 63.6721 55.8109 63.4216 55.9178C63.171 56.0246 62.9036 55.9806 62.6195 55.7858C62.479 55.7347 62.4031 55.5472 62.3918 55.2233C62.3805 54.8993 62.3955 54.6687 62.4369 54.5315C62.6539 54.123 62.8253 53.7361 62.9512 53.3706C63.0771 53.0051 63.0858 52.5894 62.9771 52.1233C61.3452 50.402 59.0917 48.0815 56.2159 45.1611C53.3402 42.2407 50.1659 39.0441 46.6934 35.5716C43.2209 32.0991 39.6289 28.5295 35.9184 24.8636C32.2079 21.1977 28.7367 17.7712 25.5051 14.5841C22.2734 11.3971 19.4498 8.6405 17.0341 6.31415Z" fill="url(#paint0_linear_809_71)"/>
<path d="M5.36425 51.8977C3.01467 54.3367 1.42665 56.0136 0.600703 56.9289C2.64808 59.1697 4.25072 60.9172 5.40838 62.1716C6.56603 63.4261 7.48077 64.365 8.15264 64.9886C8.82452 65.6121 9.36516 66.0319 9.77458 66.2479C10.184 66.4639 10.7088 66.6985 11.349 66.9517C11.7285 66.7508 11.9667 66.602 12.0634 66.5053L45.2204 33.3483C45.3803 32.831 45.5263 32.3724 45.6583 31.9723C45.7904 31.5723 45.9103 31.1843 46.0181 30.8085L47.3578 30.4069L48.6305 29.9382C49.7617 29.5216 50.4147 28.8687 50.5894 27.9793C50.7641 27.0899 51.0058 26.2676 51.3145 25.5122C51.7834 25.4007 52.2291 25.2901 52.6514 25.1804C53.0738 25.0707 53.4505 24.9395 53.7817 24.787L55.8132 22.7555C55.9247 22.2866 56.0353 21.841 56.145 21.4186C56.2548 20.9963 56.3654 20.5507 56.4769 20.0818C57.0164 19.3636 57.6471 18.9786 58.369 18.9267C59.0909 18.8747 59.7626 18.6275 60.384 18.1847L66.2608 12.3079C66.2272 11.9841 66.2281 11.6706 66.2634 11.3673C66.2986 11.064 66.2512 10.7989 66.1209 10.5718L59.1526 3.6035C58.6726 3.99413 58.2717 4.14941 57.9497 4.06935C57.6277 3.98929 57.2853 3.84031 56.9225 3.62254C56.5596 3.40477 56.2088 3.17488 55.8701 2.93295C55.5314 2.69102 55.1276 2.62578 54.6587 2.7373C54.696 2.96802 54.7202 3.23416 54.7314 3.53558C54.7427 3.83701 54.8134 4.10122 54.9438 4.32831C55.1671 4.55163 55.3318 4.78892 55.4379 5.04017C55.5441 5.29142 55.4986 5.56034 55.3014 5.84685C55.2494 5.98825 55.0606 6.06543 54.735 6.07838C54.4094 6.09133 54.1778 6.07734 54.0401 6.03642C53.6307 5.82043 53.2426 5.65006 52.876 5.52531C52.5093 5.40056 52.0916 5.39391 51.6227 5.50543C49.885 7.15377 47.5421 9.42965 44.5933 12.3338C41.6446 15.2379 38.4167 18.4434 34.9102 21.9499C31.4037 25.4564 27.799 29.0835 24.097 32.8301C20.3949 36.5768 16.9347 40.0817 13.7162 43.3448C10.4978 46.6079 7.71382 49.4588 5.36425 51.8977Z" fill="url(#paint1_linear_809_71)"/>
<defs>
<linearGradient id="paint0_linear_809_71" x1="107.151" y1="17.29" x2="-35.0668" y2="159.507" gradientUnits="userSpaceOnUse">
<stop stop-color="white"/>
<stop offset="0.0001" stop-color="#E6E7E8"/>
<stop offset="0.504" stop-color="white"/>
<stop offset="1" stop-color="white"/>
</linearGradient>
<linearGradient id="paint1_linear_809_71" x1="16.8352" y1="-38.7139" x2="159.053" y2="103.504" gradientUnits="userSpaceOnUse">
<stop stop-color="white"/>
<stop offset="0.0001" stop-color="#E6E7E8"/>
<stop offset="0.504" stop-color="white"/>
<stop offset="1" stop-color="white"/>
</linearGradient>
</defs>
</svg>
